<svg width="24" height="24" viewBox="0 0 24 24" fill="none" xmlns="http://www.w3.org/2000/svg">
<path fill-rule="evenodd" clip-rule="evenodd" d="M14.8887 3.584L22.5607 16.303C23.1297 17.246 23.1467 18.38 22.6067 19.336C22.0267 20.363 20.9027 21 19.6717 21H4.3277C3.0977 21 1.9727 20.363 1.3937 19.336C0.853699 18.38 0.870699 17.246 1.4397 16.303L9.1117 3.584C9.7097 2.592 10.7897 2 11.9997 2C13.2097 2 14.2897 2.592 14.8887 3.584ZM20.8647 18.353C20.6357 18.758 20.1897 19 19.6717 19H4.3277C3.8097 19 3.3637 18.758 3.1357 18.353C3.0277 18.163 2.8857 17.776 3.1527 17.336L10.8237 4.618C11.2907 3.844 12.7087 3.844 13.1757 4.618L20.8477 17.336C21.1137 17.776 20.9727 18.163 20.8647 18.353ZM11 9C11 8.448 11.448 8 12 8C12.552 8 13 8.448 13 9V13C13 13.552 12.552 14 12 14C11.448 14 11 13.552 11 13V9ZM11 16C11 15.448 11.448 15 12 15C12.552 15 13 15.448 13 16C13 16.552 12.552 17 12 17C11.448 17 11 16.552 11 16Z" fill="#FFD143"/>
<mask id="mask0_1294_5061" style="mask-type:alpha" maskUnits="userSpaceOnUse" x="1" y="2" width="22" height="19">
<path fill-rule="evenodd" clip-rule="evenodd" d="M14.8887 3.584L22.5607 16.303C23.1297 17.246 23.1467 18.38 22.6067 19.336C22.0267 20.363 20.9027 21 19.6717 21H4.3277C3.0977 21 1.9727 20.363 1.3937 19.336C0.853699 18.38 0.870699 17.246 1.4397 16.303L9.1117 3.584C9.7097 2.592 10.7897 2 11.9997 2C13.2097 2 14.2897 2.592 14.8887 3.584ZM20.8647 18.353C20.6357 18.758 20.1897 19 19.6717 19H4.3277C3.8097 19 3.3637 18.758 3.1357 18.353C3.0277 18.163 2.8857 17.776 3.1527 17.336L10.8237 4.618C11.2907 3.844 12.7087 3.844 13.1757 4.618L20.8477 17.336C21.1137 17.776 20.9727 18.163 20.8647 18.353ZM11 9C11 8.448 11.448 8 12 8C12.552 8 13 8.448 13 9V13C13 13.552 12.552 14 12 14C11.448 14 11 13.552 11 13V9ZM11 16C11 15.448 11.448 15 12 15C12.552 15 13 15.448 13 16C13 16.552 12.552 17 12 17C11.448 17 11 16.552 11 16Z" fill="white"/>
</mask>
<g mask="url(#mask0_1294_5061)">
</g>
</svg>
