<svg width="185" height="184" viewBox="0 0 185 184" fill="none" xmlns="http://www.w3.org/2000/svg">
<path d="M90.2 74.2V87.4H177.8V74.2H90.2ZM89.8 113.8V127.4H180V113.8H89.8ZM125.6 -6.67572e-06V184H140V-6.67572e-06H125.6ZM82.6 34.8V136H96.6V48.4H170.6V135H184.8V34.8H82.6ZM8 37.6V51.4H68.4V37.6H8ZM35.4 0.199991V44.4H50V0.199991H35.4ZM51.6 83L43 90.6C49.4 96.8 65.2 113.2 71 120.6L79.8 108.4C75.4 104 57 87 51.6 83ZM63 37.6V40.8C51.8 71 25.6 101.4 0.6 117.6C3.2 120.2 7 127.2 8.4 131C35 112.4 63.4 78.8 77.2 42.4L68.8 37L66.2 37.6H63ZM35.4 97.8V183.8H50V79.8L35.4 97.8Z" fill="#0F1A20"/>
</svg>
