<svg width="20" height="20" viewBox="0 0 20 20" fill="none" xmlns="http://www.w3.org/2000/svg">
<path fill-rule="evenodd" clip-rule="evenodd" d="M0 8.66993C0 3.88166 3.84034 0 8.57764 0C10.8526 0 13.0343 0.913436 14.6429 2.53936C16.2516 4.16529 17.1553 6.37052 17.1553 8.66993C17.1553 13.4582 13.3149 17.3399 8.57764 17.3399C3.84034 17.3399 0 13.4582 0 8.66993ZM17.0134 15.6543L19.568 17.7164H19.6124C20.1292 18.2388 20.1292 19.0858 19.6124 19.6082C19.0955 20.1306 18.2576 20.1306 17.7407 19.6082L15.6207 17.1785C15.4203 16.9766 15.3076 16.7024 15.3076 16.4164C15.3076 16.1304 15.4203 15.8562 15.6207 15.6543C16.0072 15.2704 16.6268 15.2704 17.0134 15.6543Z" fill="#D90368"/>
</svg>
