<svg width="712" height="156" viewBox="0 0 712 156" fill="none" xmlns="http://www.w3.org/2000/svg">
<path d="M92.6 116.2C92.6 127.133 87.6667 136.333 77.8 143.8C67.9333 151.133 56.6 154.8 43.8 154.8C31.1333 154.8 20.6667 151.533 12.4 145C4.13333 138.333 7.07805e-08 132.067 7.07805e-08 126.2C7.07805e-08 122.2 1.2 120.2 3.6 120.2C5.73333 120.2 9.93333 123.4 16.2 129.8C18.6 132.067 21.8 134.2 25.8 136.2C29.9333 138.2 34.2667 139.2 38.8 139.2C48.1333 139.2 56.4 136.8 63.6 132C70.9333 127.2 74.6 122 74.6 116.4C74.6 112.8 72.2 108.2 67.4 102.6C62.6 97 57.2667 91.7333 51.4 86.8C45.6667 81.7333 40.4 76.3333 35.6 70.6C30.8 64.8667 28.4 60.3333 28.4 57C28.4 53.6667 29.0667 50.1333 30.4 46.4C31.7333 42.6667 33.2 39.9333 34.8 38.2C40 32.4667 48.0667 27.2 59 22.4C70.0667 17.6 79.3333 15.2 86.8 15.2C90.6667 15.2 93.9333 16.4667 96.6 19C99.2667 21.5333 100.6 24.2 100.6 27C100.6 28.3333 99.2 29.4 96.4 30.2C93.6 31 89.3333 32.0667 83.6 33.4C78 34.6 73 36.0667 68.6 37.8C53.2667 43.6667 45.6 49.3333 45.6 54.8C45.6 57.7333 53.4 65.9333 69 79.4C75 84.6 80.4 90.6667 85.2 97.6C90.1333 104.4 92.6 110.6 92.6 116.2ZM135.05 8.59999C135.05 3.4 136.65 0.799998 139.85 0.799998C142.383 0.799998 145.05 2.8 147.85 6.79999C150.783 10.8 152.25 14.6667 152.25 18.4C152.25 27.0667 150.05 41.8667 145.65 62.8C141.383 83.6 135.783 104.4 128.85 125.2C142.183 101.067 153.317 83.6667 162.25 73C171.317 62.2 179.05 56.8 185.45 56.8C188.917 56.8 192.917 59.8 197.45 65.8C202.117 71.8 204.45 77.8 204.45 83.8C204.45 89.8 202.783 98.8 199.45 110.8C191.183 140.933 183.383 156 176.05 156C173.117 156 171.65 154 171.65 150C171.65 146 173.25 139.267 176.45 129.8C183.517 109.133 187.05 95.2 187.05 88C187.05 85.6 186.45 83.6 185.25 82C184.05 80.4 182.583 79.6 180.85 79.6C179.117 79.6 176.983 80.5333 174.45 82.4C171.917 84.2667 168.85 87.5333 165.25 92.2C160.717 98.2 155.983 104.933 151.05 112.4C146.25 119.867 143.317 124.4 142.25 126C141.317 127.467 139.583 130.2 137.05 134.2C134.65 138.2 132.85 141.2 131.65 143.2C130.45 145.067 128.983 147.133 127.25 149.4C124.183 153.8 121.85 156 120.25 156C118.65 156 116.517 154.533 113.85 151.6C111.183 148.533 109.85 146 109.85 144C109.85 141.867 110.583 137.933 112.05 132.2C118.717 106.6 122.917 89.0667 124.65 79.6C131.583 44.9333 135.05 21.2667 135.05 8.59999ZM298.477 90C298.477 97.0667 294.61 102.867 286.877 107.4C279.277 111.8 270.61 114 260.877 114C251.277 114 242.543 112.933 234.677 110.8C232.81 116.667 231.877 121.933 231.877 126.6C231.877 131.133 233.277 134.667 236.077 137.2C239.01 139.733 243.743 141 250.277 141C256.943 141 263.743 139.867 270.677 137.6C277.743 135.2 281.61 134 282.277 134C285.743 134 287.477 135.333 287.477 138C287.477 141.6 283.41 145.533 275.277 149.8C267.143 153.933 259.21 156 251.477 156C241.077 156 232.61 152.933 226.077 146.8C219.543 140.533 216.277 132.667 216.277 123.2C216.277 113.733 218.81 103.867 223.877 93.6C228.943 83.2 235.477 74.4667 243.477 67.4C251.477 60.3333 259.41 56.8 267.277 56.8C275.143 56.8 282.277 60.5333 288.677 68C295.21 75.4667 298.477 82.8 298.477 90ZM268.277 72.6C263.343 72.6 258.21 75.2 252.877 80.4C247.543 85.4667 243.01 91.8 239.277 99.4C244.61 100.6 250.677 101.2 257.477 101.2C264.277 101.2 270.21 100.133 275.277 98C280.343 95.7333 282.877 92.8 282.877 89.2C282.877 85.6 281.21 81.9333 277.877 78.2C274.677 74.4667 271.477 72.6 268.277 72.6ZM328.316 121.2C341.116 99.4667 351.516 83.3333 359.516 72.8C367.649 62.1333 374.249 56.8 379.316 56.8C384.516 56.8 389.382 59.5333 393.916 65C398.582 70.4667 400.916 76.2667 400.916 82.4C400.916 92 398.716 103.733 394.316 117.6C386.316 143.2 379.116 156 372.716 156C369.782 156 368.316 154 368.316 150C368.316 147.2 369.716 141.533 372.516 133C375.449 124.333 378.116 115.867 380.516 107.6C383.049 99.2 384.316 92.9333 384.316 88.8C384.316 84.5333 383.649 81.4 382.316 79.4C381.116 77.4 379.849 76.4 378.516 76.4C377.316 76.4 376.049 76.8 374.716 77.6C373.382 78.4 371.849 79.7333 370.116 81.6C368.516 83.4667 366.982 85.3333 365.516 87.2C364.049 88.9333 362.182 91.4667 359.916 94.8C357.782 98.1333 355.982 101 354.516 103.4C353.049 105.667 350.916 109 348.116 113.4C345.316 117.8 343.182 121.133 341.716 123.4C340.249 125.667 338.316 128.733 335.916 132.6C333.516 136.467 331.582 139.467 330.116 141.6C328.782 143.733 327.249 146.067 325.516 148.6C322.182 153.533 319.516 156 317.516 156C315.649 156 313.449 154.533 310.916 151.6C308.382 148.533 307.116 145.867 307.116 143.6C307.116 142.933 307.582 141.133 308.516 138.2C311.049 130.467 313.849 120.933 316.916 109.6C319.982 98.1333 321.649 85.1333 321.916 70.6C322.316 60.8667 323.716 56 326.116 56C329.049 56 331.982 57.5333 334.916 60.6C337.849 63.6667 339.316 67.0667 339.316 70.8C339.316 74.4 338.182 81.4667 335.916 92C333.782 102.4 331.249 112.133 328.316 121.2ZM493.556 93.4C493.556 95.5333 491.356 97.2667 486.956 98.6C482.69 99.9333 472.223 102.267 455.556 105.6C439.023 108.933 429.956 110.6 428.356 110.6C426.89 110.6 425.09 109.467 422.956 107.2C420.823 104.933 419.756 102.867 419.756 101C419.756 98.0667 427.29 95.2667 442.356 92.6C457.423 89.8 470.49 88.4 481.556 88.4C489.556 88.4 493.556 90.0667 493.556 93.4ZM521.953 155C520.086 155 517.886 153.467 515.353 150.4C512.953 147.2 511.753 143.933 511.753 140.6C511.753 137.133 516.086 118.6 524.753 85C533.42 51.4 537.753 30.3333 537.753 21.8C537.753 19.4 538.02 17.7333 538.553 16.8C539.086 15.8667 540.286 15.4 542.153 15.4C544.153 15.4 546.486 17.4667 549.153 21.6C551.82 25.7333 553.153 30.4667 553.153 35.8C553.153 41.1333 549.686 56.9333 542.753 83.2C554.886 66.6667 567.686 51.4667 581.153 37.6C594.62 23.6 603.153 16.6 606.753 16.6C609.42 16.6 611.886 17.4667 614.153 19.2C616.553 20.9333 617.753 22.6667 617.753 24.4C617.753 26 614.553 29.7333 608.153 35.6C601.886 41.3333 593.42 49.4 582.753 59.8C572.086 70.2 562.953 80.6 555.353 91C555.353 96.4667 556.82 102.4 559.753 108.8C564.42 119.467 574.02 128.333 588.553 135.4C594.82 138.467 599.686 141.067 603.153 143.2C606.753 145.333 608.553 147.533 608.553 149.8C608.553 153.267 605.953 155 600.753 155C595.553 155 590.086 153.933 584.353 151.8C578.62 149.533 572.886 146.4 567.153 142.4C561.42 138.4 556.153 133.133 551.353 126.6C546.686 119.933 543.486 112.667 541.753 104.8C537.62 112.133 533.753 121.8 530.153 133.8C525.753 147.933 523.086 155 522.153 155H521.953ZM696.117 62.4C696.651 60.2667 697.184 58.8 697.717 58C698.251 57.2 699.384 56.8 701.117 56.8C702.984 56.8 705.184 58.5333 707.717 62C710.384 65.4667 711.717 68.8 711.717 72C711.717 73.7333 708.784 84 702.917 102.8C697.051 121.6 692.517 136.533 689.317 147.6C687.717 153.2 685.451 156 682.517 156C680.784 156 679.317 155.267 678.117 153.8C676.917 152.333 676.317 149.667 676.317 145.8C676.317 141.933 677.851 134.933 680.917 124.8C675.317 133.867 669.251 141.333 662.717 147.2C656.184 153.067 650.184 156 644.717 156C639.384 156 634.317 153.467 629.517 148.4C624.717 143.333 622.317 138.133 622.317 132.8C622.317 120.133 625.984 104.333 633.317 85.4C640.784 66.3333 646.984 56.8 651.917 56.8C654.317 56.8 656.384 57.9333 658.117 60.2C659.984 62.3333 660.917 64.8 660.917 67.6C660.917 68.8 659.117 73.1333 655.517 80.6C651.917 87.9333 648.317 96.6 644.717 106.6C641.117 116.467 639.317 125.133 639.317 132.6C639.317 134.733 639.984 136.533 641.317 138C642.651 139.333 644.251 140 646.117 140C651.184 140 657.184 135.533 664.117 126.6C671.184 117.667 677.584 107.267 683.317 95.4C689.051 83.5333 693.317 72.5333 696.117 62.4Z" fill="black"/>
</svg>
